<svg xmlns="http://www.w3.org/2000/svg" xmlns:svg="http://www.w3.org/2000/svg" id="svg4627" width="159.485" height="64.184" version="1.1" viewBox="0 0 42.197 16.982"><metadata id="metadata4624"/><g id="layer1" transform="translate(101.22949,-33.753016)"><g id="g851"><g id="g52" transform="matrix(0.35277777,0,0,-0.35277777,-76.576059,40.846435)"><path id="path54" d="M 0,0 C 0,0 -59.354,34.438 -64.485,13.024 -69.615,-8.39 -75.38,-24.683 -59.574,-27.694 -43.768,-30.706 0,0 0,0" style="fill:#4074b1;fill-opacity:1;fill-rule:nonzero;stroke:none"/></g><g id="g56" transform="matrix(0.35277777,0,0,-0.35277777,-80.195806,39.02088)"><path id="path58" d="M 0,0 C 17.038,8.808 50.672,23.885 54.522,7.918 59.704,-13.573 65.506,-29.921 49.737,-32.99 38.656,-35.147 13.744,-20.618 -0.087,-11.792 -0.102,-1.353 0.015,-10.286 0,0" style="fill:#4e88cc;fill-opacity:1;fill-rule:nonzero;stroke:none"/></g></g></g></svg>